<svg xmlns="http://www.w3.org/2000/svg" width="16.997" height="17" viewBox="0 0 16.997 17"><defs><style>.a{fill:#0265c9;}</style></defs><g transform="translate(-359 -5116)"><g transform="translate(359 5116)"><path class="a" d="M14.094,9.994H10.335L12.292,6.87a4.482,4.482,0,1,0-7.589,0L6.662,9.994H2.9L0,17H17Zm-2.554,3.984h3.127L15.506,16H11.8ZM10.793,16H6.2l.252-2.025h4.085Zm3.461-3.021H11.412l-.254-1.992h2.27Zm-9.242-8.5A3.486,3.486,0,1,1,11.449,6.34L8.5,11.048,5.547,6.339a3.476,3.476,0,0,1-.535-1.857ZM8.5,12.924,9.71,10.99h.444l.254,1.992H6.574l.248-1.992h.465ZM3.568,10.99h2.25L5.57,12.982H2.743ZM2.33,13.979H5.446L5.195,16h-3.7Zm0,0" transform="translate(0)"/><path class="a" d="M185.933,62.49a2.49,2.49,0,1,0-2.49,2.49A2.493,2.493,0,0,0,185.933,62.49Zm-3.984,0a1.494,1.494,0,1,1,1.494,1.494A1.5,1.5,0,0,1,181.949,62.49Zm0,0" transform="translate(-174.945 -58.008)"/></g></g></svg>