<svg xmlns="http://www.w3.org/2000/svg" width="17" height="17" viewBox="0 0 17 17"><defs><style>.a{fill:#0265c9;}</style></defs><g transform="translate(-490 -5056)"><path class="a" d="M14.509,2.49a8.5,8.5,0,1,0,0,12.018A8.493,8.493,0,0,0,14.509,2.49ZM14.154,13.3a8.518,8.518,0,0,0-1.269-.94A13.744,13.744,0,0,0,13.4,9.041h2.5A7.348,7.348,0,0,1,14.154,13.3ZM1.1,9.041H3.6a13.744,13.744,0,0,0,.513,3.316,8.518,8.518,0,0,0-1.269.94A7.348,7.348,0,0,1,1.1,9.041ZM2.846,3.7a8.518,8.518,0,0,0,1.269.94A13.744,13.744,0,0,0,3.6,7.958H1.1A7.348,7.348,0,0,1,2.846,3.7ZM7.959,4.754a7.357,7.357,0,0,1-2.524-.64c.459-1.182,1.306-2.6,2.524-2.952Zm0,1.085V7.958H4.687A12.76,12.76,0,0,1,5.1,5.15,8.441,8.441,0,0,0,7.959,5.839Zm0,3.2V11.16a8.441,8.441,0,0,0-2.861.689,12.76,12.76,0,0,1-.411-2.808Zm0,3.2v3.591c-1.219-.351-2.065-1.769-2.524-2.952A7.357,7.357,0,0,1,7.959,12.245Zm1.083,0a7.357,7.357,0,0,1,2.524.64c-.459,1.182-1.306,2.6-2.524,2.952Zm0-1.085V9.041h3.272a12.76,12.76,0,0,1-.411,2.808,8.441,8.441,0,0,0-2.861-.689Zm0-3.2V5.839A8.441,8.441,0,0,0,11.9,5.15a12.76,12.76,0,0,1,.411,2.808Zm0-3.2V1.162c1.219.351,2.065,1.77,2.524,2.952A7.358,7.358,0,0,1,9.042,4.754ZM11.474,1.7a7.382,7.382,0,0,1,1.92,1.226,7.443,7.443,0,0,1-.871.661A8.153,8.153,0,0,0,11.474,1.7Zm-7,1.887a7.446,7.446,0,0,1-.871-.661A7.382,7.382,0,0,1,5.526,1.7,8.156,8.156,0,0,0,4.478,3.59Zm0,9.819A8.154,8.154,0,0,0,5.526,15.3a7.382,7.382,0,0,1-1.92-1.226A7.443,7.443,0,0,1,4.478,13.409Zm8.045,0a7.447,7.447,0,0,1,.871.661,7.382,7.382,0,0,1-1.92,1.226A8.153,8.153,0,0,0,12.523,13.409ZM13.4,7.958a13.744,13.744,0,0,0-.513-3.316,8.52,8.52,0,0,0,1.269-.94A7.348,7.348,0,0,1,15.9,7.958Z" transform="translate(490 5056)"/></g></svg>