<svg xmlns="http://www.w3.org/2000/svg" width="67.816" height="22.324" viewBox="0 0 67.816 22.324"><defs><style>.a{fill:#ea4335;}.b{fill:#fbbc05;}.c{fill:#4285f4;}.d{fill:#34a853;}</style></defs><g transform="translate(-0.36 -0.47)"><path class="a" d="M82.442,30.578A5.6,5.6,0,1,1,76.846,25,5.51,5.51,0,0,1,82.442,30.578Zm-2.45,0a3.154,3.154,0,1,0-6.293,0,3.154,3.154,0,1,0,6.293,0Z" transform="translate(-53.061 -18.361)"/><path class="b" d="M130.442,30.578a5.6,5.6,0,1,1-5.6-5.578A5.51,5.51,0,0,1,130.442,30.578Zm-2.45,0a3.154,3.154,0,1,0-6.293,0,3.154,3.154,0,1,0,6.293,0Z" transform="translate(-88.989 -18.361)"/><path class="c" d="M177.924,25.337V35.352c0,4.12-2.43,5.8-5.3,5.8a5.312,5.312,0,0,1-4.945-3.287l2.133-.888a3.081,3.081,0,0,0,2.809,1.979c1.839,0,2.978-1.134,2.978-3.27v-.8h-.086a3.8,3.8,0,0,1-2.938,1.268,5.582,5.582,0,0,1,0-11.154,3.866,3.866,0,0,1,2.938,1.247h.086V25.34h2.326ZM175.771,30.6a3.143,3.143,0,0,0-2.978-3.4,3.226,3.226,0,0,0-3.106,3.4,3.2,3.2,0,0,0,3.106,3.36A3.118,3.118,0,0,0,175.771,30.6Z" transform="translate(-124.901 -18.361)"/><path class="d" d="M217.889,3V19.348H215.5V3Z" transform="translate(-161.031 -1.894)"/><path class="a" d="M237.372,32.407l1.9,1.268a5.553,5.553,0,0,1-4.648,2.472,5.458,5.458,0,0,1-5.536-5.578,5.3,5.3,0,0,1,5.261-5.578,5.181,5.181,0,0,1,4.774,3.549l.254.634-7.457,3.088a2.839,2.839,0,0,0,2.7,1.69A3.184,3.184,0,0,0,237.372,32.407ZM231.52,30.4l4.985-2.07a2.16,2.16,0,0,0-2.07-1.182A3.06,3.06,0,0,0,231.52,30.4Z" transform="translate(-171.203 -18.353)"/><path class="c" d="M9.145,10.767V8.4H17.12a7.842,7.842,0,0,1,.118,1.429,7.816,7.816,0,0,1-2.05,5.536,7.921,7.921,0,0,1-6.041,2.43A8.783,8.783,0,0,1,.36,9.132,8.783,8.783,0,0,1,9.148.47a8.254,8.254,0,0,1,5.935,2.387l-1.67,1.67a6.033,6.033,0,0,0-4.268-1.69,6.213,6.213,0,0,0-6.212,6.3,6.213,6.213,0,0,0,6.212,6.3,5.8,5.8,0,0,0,4.374-1.733,4.905,4.905,0,0,0,1.283-2.93Z"/></g></svg>