<svg xmlns="http://www.w3.org/2000/svg" width="17" height="17" viewBox="0 0 17 17"><defs><style>.a{fill:#0265c9;}</style></defs><g transform="translate(-1640 -5734)"><g transform="translate(1640 5734)"><g transform="translate(0 0)"><path class="a" d="M248.664,22.418h.033a6.028,6.028,0,0,1,6.04,6.07.664.664,0,0,0,.661.667h0a.664.664,0,0,0,.664-.661,7.356,7.356,0,0,0-7.368-7.4h-.036a.664.664,0,0,0,0,1.328Z" transform="translate(-239.765 -20.39)"/><path class="a" d="M17,13.7a2.515,2.515,0,0,0-.771-1.728,6.176,6.176,0,0,0-2.445-1.625,2.737,2.737,0,0,0-2.81.8l0,0-.9.892a13.371,13.371,0,0,1-2.83-2.19l-.087-.087A13.454,13.454,0,0,1,4.962,6.931l.891-.9,0,0a2.737,2.737,0,0,0,.8-2.81A6.176,6.176,0,0,0,5.03.774,2.527,2.527,0,0,0,1.523.647L1.5.664,1.478.689A5.388,5.388,0,0,0,0,4.635c.014,2.73,1.514,5.852,4.014,8.352l.006.006a16.2,16.2,0,0,0,1.586,1.38.664.664,0,1,0,.808-1.054,14.849,14.849,0,0,1-1.461-1.272l-.006-.006A11.274,11.274,0,0,1,1.328,4.629,4.1,4.1,0,0,1,2.405,1.64l.005,0a1.2,1.2,0,0,1,1.664.06c1.719,1.783,1.595,2.625.835,3.4L3.678,6.339a.664.664,0,0,0-.135.738A13.418,13.418,0,0,0,6.213,10.7l.087.087a13.417,13.417,0,0,0,3.623,2.67.664.664,0,0,0,.738-.135l1.24-1.231c.779-.76,1.621-.884,3.4.835a1.2,1.2,0,0,1,.06,1.664l0,.005A4.09,4.09,0,0,1,12.4,15.673h-.03A8.611,8.611,0,0,1,9.1,14.9a.664.664,0,0,0-.526,1.22,9.8,9.8,0,0,0,3.8.884H12.4a5.376,5.376,0,0,0,3.909-1.478l.025-.026.017-.019A2.515,2.515,0,0,0,17,13.7Z" transform="translate(0 -0.001)"/><path class="a" d="M294.748,112.953a3.65,3.65,0,0,0-1.725-.992.664.664,0,0,0-.354,1.28,2.323,2.323,0,0,1,1.139.651,2.373,2.373,0,0,1,.645,1.118l.01.033a.664.664,0,1,0,1.273-.377l-.009-.03A3.655,3.655,0,0,0,294.748,112.953Z" transform="translate(-282.481 -108.219)"/></g></g></g></svg>