<svg xmlns="http://www.w3.org/2000/svg" width="53.5" height="66" viewBox="0 0 53.5 66"><defs><style>.a{fill:#45a357;}</style></defs><g transform="translate(-1317 -993.5)"><rect class="a" width="66" height="29" rx="14.5" transform="translate(1317 1059.5) rotate(-90)"/><g transform="translate(1319.5 1004.36)"><path d="M47.774,26.806V19.548a4.037,4.037,0,0,0-4.032-4.032H22.774a3.98,3.98,0,0,0-1.753.419,10.378,10.378,0,0,0-4.451-3.054,6.453,6.453,0,1,0-6.932.008,10.493,10.493,0,0,0-7.025,9.885v4.032H1V51H51V26.806ZM27.613,39.71V36.484H38.9V39.71Zm-4.839-4.839a2.422,2.422,0,0,1-2.419-2.419v-.806H46.161v.806a2.422,2.422,0,0,1-2.419,2.419ZM43.742,17.129a2.422,2.422,0,0,1,2.419,2.419V30.032H20.355V19.548a2.422,2.422,0,0,1,2.419-2.419ZM8.258,7.452A4.839,4.839,0,1,1,13.1,12.29,4.844,4.844,0,0,1,8.258,7.452ZM4.226,22.774A8.881,8.881,0,0,1,13.1,13.9a8.786,8.786,0,0,1,6.647,3.015,4,4,0,0,0-1,2.631v7.258H8.258V19.548H6.645v7.258H4.226Zm14.516,5.645v4.032a4.037,4.037,0,0,0,4.032,4.032H26V39.71H22.774v1.613H43.742V39.71H40.516V36.484h3.226a4.037,4.037,0,0,0,4.032-4.032V28.419h1.613V44.548H2.613V28.419ZM2.613,49.387V46.161H49.387v3.226Z" transform="translate(0 0)"/><path d="M12.258,49.9c2.452,0,7.258-.974,7.258-3.226V40.226c0-2.252-4.806-3.226-7.258-3.226S5,37.974,5,40.226v6.452C5,48.929,9.806,49.9,12.258,49.9Zm0-1.613c-2.773,0-5.488-1.094-5.645-1.613V45.44a13.837,13.837,0,0,0,5.645,1.237A13.83,13.83,0,0,0,17.9,45.44v1.219c-.159.538-2.874,1.631-5.647,1.631Zm0-9.677c2.741,0,5.426,1.069,5.641,1.613-.215.544-2.9,1.613-5.641,1.613-2.767,0-5.475-1.09-5.645-1.59v-.007c.17-.539,2.878-1.628,5.645-1.628Zm-5.645,3.6a13.837,13.837,0,0,0,5.645,1.237A13.838,13.838,0,0,0,17.9,42.215v1.22c-.165.539-2.876,1.63-5.646,1.63S6.77,43.971,6.613,43.452Z" transform="translate(-0.774 -6.968)"/><path d="M28.419,9.065a2.4,2.4,0,0,0,1.34-.407l2.814,2.11a2.368,2.368,0,0,0-.121.716,2.419,2.419,0,1,0,4.839,0,2.38,2.38,0,0,0-.243-1.036L40.285,7.21a2.339,2.339,0,0,0,2.073,0l1.625,1.625a2.4,2.4,0,0,0-.242,1.037,2.419,2.419,0,0,0,4.839,0,2.38,2.38,0,0,0-.243-1.036L51.576,5.6a2.4,2.4,0,0,0,1.037.242,2.419,2.419,0,1,0-2.419-2.419,2.38,2.38,0,0,0,.243,1.036L47.2,7.694a2.339,2.339,0,0,0-2.073,0L43.5,6.069a2.4,2.4,0,0,0,.242-1.037,2.419,2.419,0,1,0-4.839,0,2.38,2.38,0,0,0,.243,1.036L35.908,9.306a2.379,2.379,0,0,0-2.377.165l-2.814-2.11a2.368,2.368,0,0,0,.121-.716,2.419,2.419,0,1,0-2.419,2.419ZM52.613,2.613a.806.806,0,1,1-.806.806A.808.808,0,0,1,52.613,2.613ZM46.968,9.871a.806.806,0,1,1-.806-.806A.808.808,0,0,1,46.968,9.871ZM41.323,4.226a.806.806,0,1,1-.806.806A.808.808,0,0,1,41.323,4.226Zm-6.452,6.452a.806.806,0,1,1-.806.806A.808.808,0,0,1,34.871,10.677ZM28.419,5.839a.806.806,0,1,1-.806.806A.808.808,0,0,1,28.419,5.839Z" transform="translate(-4.839 0)"/><path d="M48.968,31.065H47.355V23H42.516v8.065H40.9V26.226H36.065v4.839H34.452V24.613H29.613v6.452H28v1.613H48.968Zm-4.839-6.452h1.613v6.452H44.129Zm-6.452,3.226H39.29v3.226H37.677Zm-6.452-1.613h1.613v4.839H31.226Z" transform="translate(-5.226 -4.258)"/></g></g></svg>