<svg xmlns="http://www.w3.org/2000/svg" width="53.174" height="50" viewBox="0 0 53.174 50"><defs><style>.a{fill:#ffc1cd;}</style></defs><g transform="translate(-140 -997.826)"><circle class="a" cx="21.5" cy="21.5" r="21.5" transform="translate(140 998)"/><g transform="translate(142 997.826)"><path d="M202.253,447.751l-.15.734.145-.735a.749.749,0,1,0-.29,1.471l.014,0a.765.765,0,0,0,.142.014.75.75,0,0,0,.14-1.486Zm0,0" transform="translate(-181.228 -402.985)"/><path d="M261.623,450.26l.075.746-.077-.745a.75.75,0,0,0,.076,1.5c.026,0,.052,0,.078,0l.021,0a.75.75,0,0,0-.172-1.489Zm0,0" transform="translate(-234.866 -405.252)"/><path d="M231.89,451.231h-.011a.745.745,0,0,0-.777.716.754.754,0,0,0,.72.782h.035a.75.75,0,0,0,.033-1.5Zm0,0" transform="translate(-208.003 -406.129)"/><path d="M173.584,439.837l-.009,0a.745.745,0,0,0-.954.454.752.752,0,1,0,.964-.45Zm0,0" transform="translate(-155.327 -395.832)"/><path d="M290.917,444.827l.185.727-.187-.726a.75.75,0,1,0,.374,1.452l.02-.005a.75.75,0,0,0-.392-1.447Zm0,0" transform="translate(-261.331 -400.344)"/><path d="M319.043,435.016l.3.688-.3-.687a.75.75,0,1,0,.6,1.375l.018-.008a.75.75,0,0,0-.615-1.367Zm0,0" transform="translate(-286.747 -391.479)"/><path d="M147.23,80.189a.75.75,0,1,0-.35-1.412l-.009,0a.749.749,0,0,0,.359,1.407Zm0,0" transform="translate(-131.838 -70.823)"/><path d="M63.638,164.657a.75.75,0,0,0,1.012-.316l.013-.026a.75.75,0,1,0-1.026.342Zm0,0" transform="translate(-56.916 -146.918)"/><path d="M52.106,192.452a.749.749,0,0,0,.95-.47l.01-.03a.75.75,0,1,0-.96.5Zm0,0" transform="translate(-46.439 -171.893)"/><path d="M79.272,138.959a.749.749,0,0,0,1.047-.165l.01-.013a.75.75,0,0,0-1.22-.872l.6.444-.606-.441A.75.75,0,0,0,79.272,138.959Zm0,0" transform="translate(-71.071 -123.844)"/><path d="M121.794,96.327a.753.753,0,1,0-.434-1.362l-.019.014a.75.75,0,0,0,.453,1.349Zm0,0" transform="translate(-108.946 -85.343)"/><path d="M49.673,310.6a.75.75,0,1,0-.01-.033Zm0,0" transform="translate(-44.675 -278.674)"/><path d="M99.14,116.112a.752.752,0,1,0-.524-1.285l-.012.012a.749.749,0,0,0,.536,1.273Zm0,0" transform="translate(-88.556 -103.152)"/><path d="M44.843,280.847a.75.75,0,0,0-1.488.185l0,.03a.75.75,0,0,0,1.484-.216Zm0,0" transform="translate(-39.017 -252.188)"/><path d="M42.318,251.657h.023a.75.75,0,0,0,.749-.728V250.9a.75.75,0,1,0-.772.759Zm0,0" transform="translate(-37.434 -225.146)"/><path d="M44.95,221.682a.773.773,0,0,0,.133.012.75.75,0,0,0,.737-.618c0-.011,0-.022.005-.033a.75.75,0,1,0-.875.639Zm0,0" transform="translate(-39.901 -198.176)"/><path d="M403.053,142.938a.75.75,0,0,0,1.234-.851l-.623.417.621-.421a.75.75,0,0,0-1.241.841Zm0,0" transform="translate(-362.643 -127.586)"/><path d="M436.606,229.027a.749.749,0,0,0-.661.829l0,.032a.75.75,0,0,0,.741.643.766.766,0,0,0,.107-.007.755.755,0,0,0-.191-1.5Zm0,0" transform="translate(-392.369 -206.131)"/><path d="M429.669,199.247l0,.01a.75.75,0,0,0,.719.538.739.739,0,0,0,.212-.031.75.75,0,0,0,.508-.931l0-.01a.75.75,0,0,0-1.438.423Zm0,0" transform="translate(-386.697 -178.466)"/><path d="M418.614,170.047a.754.754,0,0,0,.676.421.749.749,0,0,0,.671-1.078l-.679.317.679-.318a.75.75,0,0,0-1.358.636Zm0,0" transform="translate(-376.7 -152.069)"/><path d="M383.416,118.632a.755.755,0,1,0-.023-.024Zm0,0" transform="translate(-344.894 -105.621)"/><path d="M438.088,260.385a.754.754,0,0,0-.064,1.507h.043a.75.75,0,0,0,.748-.708v-.031A.749.749,0,0,0,438.088,260.385Zm0,0" transform="translate(-393.607 -234.359)"/><path d="M333.942,80.677l.018.01a.747.747,0,0,0,1.01-.308.752.752,0,0,0-.3-1.015l-.363.656.36-.657a.75.75,0,1,0-.721,1.315Zm0,0" transform="translate(-300.215 -71.347)"/><path d="M360.175,97.69l.012.009a.75.75,0,0,0,.906-1.195l-.005,0a.75.75,0,1,0-.913,1.189Zm0,0" transform="translate(-323.912 -86.716)"/><path d="M50.711,37.375l-3.519-3.525a1.583,1.583,0,0,0-2.241,0l-.082.082-.231-.231a3.026,3.026,0,0,1-.656-.982.731.731,0,0,0-.053-.139,3.031,3.031,0,0,1-.175-1.018v-1a.755.755,0,1,0,0-1.333,4.226,4.226,0,0,0-1.239-2.819L39.1,22.992a4.051,4.051,0,0,0-5.179-.465l-.362-.364V13.589A4.257,4.257,0,0,0,32.5,10.782a3.025,3.025,0,0,1-.751-2V8.157H31.8a1.587,1.587,0,0,0,1.585-1.585V1.586A1.587,1.587,0,0,0,31.8,0h-14a1.587,1.587,0,0,0-1.585,1.585V6.572A1.587,1.587,0,0,0,17.8,8.157h.116v.329a3.008,3.008,0,0,1-.885,2.139l-1.511,1.514a4.229,4.229,0,0,0-1.244,3.007v4.836a4.042,4.042,0,0,0,.435,1.827,4.025,4.025,0,0,0-2.63,1.182l-3.414,3.42A4.23,4.23,0,0,0,7.42,29.42v2.141A3.007,3.007,0,0,1,6.535,33.7l-.228.229,0,0-.081-.082a1.583,1.583,0,0,0-2.241,0L.462,37.375a1.589,1.589,0,0,0,0,2.242l1.205,1.207a.75.75,0,1,0,1.061-1.059l-1.2-1.207a.087.087,0,0,1,0-.123l3.519-3.525a.084.084,0,0,1,.119,0l.612.613h0l8.354,8.368.936.938a.087.087,0,0,1,0,.123l-3.519,3.525a.084.084,0,0,1-.119,0L4.851,41.89A.75.75,0,1,0,3.79,42.949l6.575,6.586a1.583,1.583,0,0,0,2.241,0l3.519-3.525a1.589,1.589,0,0,0,0-2.241l-.038-.038.444-.445a3.012,3.012,0,0,1,1.939-.879A4.242,4.242,0,0,0,21.2,41.169l3.233-3.24a2.567,2.567,0,0,0,1.855-1.955,2.556,2.556,0,0,0,3.652-2.313v-1.78a2.555,2.555,0,0,0,3.614-2.33V24.289l2.306,2.317a.75.75,0,0,0,1.063-1.058L35,23.616a2.553,2.553,0,0,1,3.035.436l3.414,3.419a2.74,2.74,0,0,1,.805,1.948v2.141a4.5,4.5,0,0,0,1.322,3.2l.233.233-1.087,1.089-6.576,6.588-.367-.367-.011-.011-.064-.065a4.513,4.513,0,0,0-2.9-1.316,2.749,2.749,0,0,1-1.768-.8l-2.463-2.45a.75.75,0,1,0-1.057,1.063l2.462,2.448a4.242,4.242,0,0,0,2.73,1.238,3.014,3.014,0,0,1,1.939.879l.036.036a.721.721,0,0,0,.062.062l.346.346-.038.039a1.589,1.589,0,0,0,0,2.241l3.519,3.525a1.584,1.584,0,0,0,2.242,0l9.9-9.919a1.589,1.589,0,0,0,0-2.241Zm-6.455-7.454-.014,0-.137-.028ZM20.138,40.11a2.744,2.744,0,0,1-1.765.8,4.514,4.514,0,0,0-2.9,1.316l-.442.443-.4-.4-.015-.015-7.25-7.263.233-.233a4.5,4.5,0,0,0,1.322-3.2V29.42a2.739,2.739,0,0,1,.805-1.948l3.414-3.419a2.553,2.553,0,0,1,3.039-.433l-1.926,1.929a.75.75,0,0,0,1.061,1.059l2.3-2.3v9.359a2.556,2.556,0,0,0,3.667,2.306,2.569,2.569,0,0,0,1.27,1.726ZM32.056,29.551a1.058,1.058,0,1,1-2.115,0V21.189a.75.75,0,0,0-1.5,0V33.661a1.057,1.057,0,0,1-2.1.175V21.181a.758.758,0,0,0-1.515.009V33.661a2.57,2.57,0,0,0,.016.281v1.511a1.057,1.057,0,1,1-2.115,0V21.172a.75.75,0,0,0-1.5,0V33.661a1.057,1.057,0,1,1-2.115,0V19.717a.75.75,0,1,0-1.5,0V22.3a.736.736,0,0,0-.18.086,2.565,2.565,0,0,1-1.661-2.4V15.147a2.74,2.74,0,0,1,.805-1.948l1.511-1.514a4.5,4.5,0,0,0,1.323-3.2V8.157h1.507a.75.75,0,1,0,0-1.5H17.8a.086.086,0,0,1-.086-.086V1.585A.086.086,0,0,1,17.8,1.5h14a.086.086,0,0,1,.086.086V6.572a.086.086,0,0,1-.086.086H24.437a.75.75,0,1,0,0,1.5h5.811v.628a4.526,4.526,0,0,0,1.123,2.986,2.756,2.756,0,0,1,.684,1.818ZM49.65,38.557l-9.9,9.919a.08.08,0,0,1-.06.025.081.081,0,0,1-.06-.025L36.11,44.951a.087.087,0,0,1,0-.123l.567-.568h0L42.425,38.5l3.587-3.593a.084.084,0,0,1,.119,0l3.519,3.525a.087.087,0,0,1,0,.123Zm0,0" transform="translate(0)"/><path d="M194.615,32.8a.8.8,0,1,0,.8.8A.8.8,0,0,0,194.615,32.8Zm0,0" transform="translate(-174.445 -29.526)"/><path d="M456.212,374.688a.8.8,0,1,0,.8.8A.8.8,0,0,0,456.212,374.688Zm0,0" transform="translate(-409.895 -337.238)"/><path d="M110.608,444a.8.8,0,1,0-.8.8A.8.8,0,0,0,110.608,444Zm0,0" transform="translate(-98.116 -398.905)"/></g></g></svg>