<svg xmlns="http://www.w3.org/2000/svg" width="63" height="51" viewBox="0 0 63 51"><defs><style>.a{fill:#45a357;}</style></defs><g transform="translate(-6625 -2696)"><rect class="a" width="43" height="51" rx="10" transform="translate(6645 2696)"/><g transform="translate(6625 2696)"><path d="M50.531,0H14A5.727,5.727,0,0,0,8.254,5.685L8.019,37.85H.89A.927.927,0,0,0,0,38.8v4.427a7.756,7.756,0,0,0,7.318,7.719V51h30.76v-.06c.229.009.367.06.524.06h.022a7.732,7.732,0,0,0,7.687-7.773V15.094H55.6a.937.937,0,0,0,.891-.962V6.01A6,6,0,0,0,50.531,0ZM7.718,49.17H7.712a5.928,5.928,0,0,1-5.883-5.943V39.679H30.874v3.533a7.742,7.742,0,0,0,2.26,5.494,3.285,3.285,0,0,1,.482.464Zm36.763-5.944a5.907,5.907,0,0,1-5.859,5.944H38.6a5.944,5.944,0,0,1-5.9-5.958V38.8a.948.948,0,0,0-.915-.952H9.849l.235-32.158A3.9,3.9,0,0,1,14,1.83H46.212a6.242,6.242,0,0,0-1.731,4.205Zm10.177-37.2v7.238H46.311V6.033A4.237,4.237,0,0,1,50.5,1.83h.025a4.17,4.17,0,0,1,4.129,4.19Zm0,0" transform="translate(0.001)"/><path d="M165.839,69.965l4.716,3.225a.9.9,0,0,0,1.022,0l4.7-3.224a7.1,7.1,0,0,0,2.84-5.42V58.022a.894.894,0,0,0-.488-.821l-7.181-3.532a.9.9,0,0,0-.8,0l-7.168,3.523a.893.893,0,0,0-.487.821v6.534A7.105,7.105,0,0,0,165.839,69.965Zm-1.013-11.382,6.232-3.075,6.232,3.083v5.955a5.272,5.272,0,0,1-2.043,3.908l-4.2,2.873-4.184-2.872a5.269,5.269,0,0,1-2.038-3.908Zm0,0" transform="translate(-144.357 -47.448)"/><path d="M203.648,121.33a.914.914,0,0,0,.648.274h0a.916.916,0,0,0,.647-.271l3.639-3.64a.915.915,0,0,0-1.294-1.295l-2.989,2.989-1.195-1.206a.915.915,0,1,0-1.3,1.289Zm0,0" transform="translate(-178.495 -102.85)"/><path d="M155.87,248H133.915a.915.915,0,0,0,0,1.83H155.87a.915.915,0,0,0,0-1.83Zm0,0" transform="translate(-117.791 -219.641)"/><path d="M155.87,285H133.915a.915.915,0,0,0,0,1.83H155.87a.915.915,0,0,0,0-1.83Zm0,0" transform="translate(-117.791 -252.41)"/></g></g></svg>