<svg xmlns="http://www.w3.org/2000/svg" width="66" height="51.137" viewBox="0 0 66 51.137"><defs><style>.a{fill:#00aae0;}</style></defs><g transform="translate(-670 -1001.863)"><rect class="a" width="66" height="29" rx="14.5" transform="translate(670 1024)"/><g transform="translate(677 1001.862)"><g transform="translate(0 0.001)"><path d="M48.893,8.432,25.568.1a1.71,1.71,0,0,0-1.138,0L1.11,8.432a1.667,1.667,0,0,0,0,3.136L12.5,15.638v5.2c0,3.24,11.221,3.333,12.5,3.333s12.5-.093,12.5-3.333v-5.2L40,14.75v1.917a1.667,1.667,0,0,0,1.667,1.667h1.667A1.667,1.667,0,0,0,45,16.667v-2.5a2.465,2.465,0,0,0-.272-1.109l4.167-1.49a1.667,1.667,0,0,0,0-3.136ZM35.835,19C32.661,17.555,25.973,17.5,25,17.5s-7.659.055-10.834,1.5V11.74C14.668,11.1,18.6,10,25,10s10.334,1.1,10.834,1.74ZM25,22.5c-6.167,0-10.039-1.018-10.764-1.667.724-.648,4.6-1.667,10.764-1.667s10.039,1.018,10.764,1.667C35.041,21.482,31.169,22.5,25,22.5Zm15.391-9.663L37.5,13.869v-2.2c0-3.24-11.221-3.333-12.5-3.333s-12.5.093-12.5,3.333v2.2L1.668,10,25.013,1.667,41.669,7.619v4.2a2.505,2.505,0,0,0-1.276,1.018Zm2.943,3.829H41.669v-2.5a.833.833,0,0,1,1.667,0Zm0-4.88V8.214l5,1.786Z" transform="translate(-0.001 -0.001)"/><path d="M47.5,31a.814.814,0,0,0-.149.013A139.535,139.535,0,0,1,25,32.667,139.535,139.535,0,0,1,2.649,31.013.939.939,0,0,0,2.5,31c-.583,0-2.5.661-2.5,9.167s1.917,9.167,2.5,9.167a.949.949,0,0,0,.149-.015,130.335,130.335,0,0,1,17.167-1.565l-1.627,3.9a1.66,1.66,0,0,0,2.2,2.139l.638-.273.276.634a1.658,1.658,0,0,0,1.533,1.011h.021a1.661,1.661,0,0,0,1.528-1.04l1.448-3.465,1.443,3.452a1.667,1.667,0,0,0,1.533,1.053h.025a1.655,1.655,0,0,0,1.527-1l.278-.639.628.269a1.661,1.661,0,0,0,2.208-2.149l-1.6-3.825a127.063,127.063,0,0,1,15.477,1.5.814.814,0,0,0,.145.011c.583,0,2.5-.661,2.5-9.167S48.084,31,47.5,31ZM27.667,34.308a17.55,17.55,0,0,1,.6,3.9,5.783,5.783,0,0,0-5.8.539,22.514,22.514,0,0,0-.573-4.443q1.514.032,3.106.032C25.911,34.333,26.8,34.323,27.667,34.308ZM25.834,47.667A4.167,4.167,0,1,1,30,43.5,4.167,4.167,0,0,1,25.834,47.667ZM2.5,33.083a23.373,23.373,0,0,1,.833,7.083A23.373,23.373,0,0,1,2.5,47.25a23.373,23.373,0,0,1-.833-7.083A23.373,23.373,0,0,1,2.5,33.083ZM4.183,47.392A23.272,23.272,0,0,0,5,40.167a23.259,23.259,0,0,0-.818-7.227,146.216,146.216,0,0,0,15.971,1.319,21.452,21.452,0,0,1,.68,5.908c0,.121,0,.236-.005.352a5.773,5.773,0,0,0-.268,5.46l-.037.088a145.136,145.136,0,0,0-16.34,1.327ZM22.84,53.5l-.608-1.4a.833.833,0,0,0-1.093-.433l-1.4.62L21.69,47.6a5.828,5.828,0,0,0,2.943,1.608Zm7.689-1.833a.833.833,0,0,0-1.093.433l-.617,1.386-1.787-4.278A5.833,5.833,0,0,0,29.979,47.6l1.95,4.667Zm16.805-4.042a134.961,134.961,0,0,0-16.167-1.5l-.059-.143a5.8,5.8,0,0,0-1.123-6.572,23.2,23.2,0,0,0-.6-5.134,139.1,139.1,0,0,0,17.944-1.568c.387.657,1,3.254,1,7.459s-.618,6.8-1,7.458Z" transform="translate(0 -5.167)"/></g></g></g></svg>