<svg xmlns="http://www.w3.org/2000/svg" width="12.251" height="15" viewBox="0 0 12.251 15"><g transform="translate(0 0)"><path d="M12.213,3.352l-.331-.993A.924.924,0,0,0,11,1.727H8.221V.821A.822.822,0,0,0,7.4,0H4.851A.822.822,0,0,0,4.03.821v.906H1.246a.924.924,0,0,0-.877.632l-.331.993a.743.743,0,0,0,.7.978h.346l.762,9.422A1.363,1.363,0,0,0,3.2,15h6a1.363,1.363,0,0,0,1.351-1.247l.762-9.422h.192a.743.743,0,0,0,.7-.978ZM4.908.879H7.342v.849H4.908Zm4.77,12.8a.479.479,0,0,1-.475.439h-6a.479.479,0,0,1-.475-.439L1.971,4.331h8.464ZM.931,3.452,1.2,2.638a.046.046,0,0,1,.043-.031H11a.046.046,0,0,1,.043.031l.272.814Zm0,0" transform="translate(0 0)"/><path d="M268.716,174.45h.023a.443.443,0,0,0,.442-.42l.416-7.988a.443.443,0,1,0-.885-.046l-.416,7.988A.443.443,0,0,0,268.716,174.45Zm0,0" transform="translate(-260.444 -160.81)"/><path d="M106.23,174.034a.443.443,0,0,0,.442.419h.025a.443.443,0,0,0,.418-.467L106.679,166a.443.443,0,1,0-.885.048Zm0,0" transform="translate(-102.698 -160.813)"/><path d="M194.7,174.453a.443.443,0,0,0,.443-.443v-7.988a.443.443,0,0,0-.886,0v7.988A.443.443,0,0,0,194.7,174.453Zm0,0" transform="translate(-188.567 -160.813)"/></g></svg>