<svg xmlns="http://www.w3.org/2000/svg" width="45" height="162" viewBox="0 0 45 162">
  <g id="Group_2390" data-name="Group 2390" transform="translate(-2187 1536) rotate(-90)">
    <g id="Group_1956" data-name="Group 1956" transform="translate(1133 171)">
      <g id="Ellipse_92" data-name="Ellipse 92" transform="translate(241 2016)" fill="#fff" stroke="#707070" stroke-width="1">
        <circle cx="8" cy="8" r="8" stroke="none"/>
        <circle cx="8" cy="8" r="7.5" fill="none"/>
      </g>
      <g id="Ellipse_93" data-name="Ellipse 93" transform="translate(270 2016)" fill="#fff" stroke="#707070" stroke-width="1">
        <circle cx="8" cy="8" r="8" stroke="none"/>
        <circle cx="8" cy="8" r="7.5" fill="none"/>
      </g>
      <g id="Ellipse_94" data-name="Ellipse 94" transform="translate(299 2016)" fill="#fff" stroke="#707070" stroke-width="1">
        <circle cx="8" cy="8" r="8" stroke="none"/>
        <circle cx="8" cy="8" r="7.5" fill="none"/>
      </g>
      <g id="Ellipse_95" data-name="Ellipse 95" transform="translate(329 2016)" fill="#fff" stroke="#707070" stroke-width="1">
        <circle cx="8" cy="8" r="8" stroke="none"/>
        <circle cx="8" cy="8" r="7.5" fill="none"/>
      </g>
      <g id="Ellipse_96" data-name="Ellipse 96" transform="translate(358 2016)" fill="#fff" stroke="#707070" stroke-width="1">
        <circle cx="8" cy="8" r="8" stroke="none"/>
        <circle cx="8" cy="8" r="7.5" fill="none"/>
      </g>
      <g id="Ellipse_97" data-name="Ellipse 97" transform="translate(387 2016)" fill="#fff" stroke="#707070" stroke-width="1">
        <circle cx="8" cy="8" r="8" stroke="none"/>
        <circle cx="8" cy="8" r="7.5" fill="none"/>
      </g>
    </g>
    <g id="Group_1957" data-name="Group 1957" transform="translate(1133 200)">
      <g id="Ellipse_92-2" data-name="Ellipse 92" transform="translate(241 2016)" fill="#fff" stroke="#707070" stroke-width="1">
        <circle cx="8" cy="8" r="8" stroke="none"/>
        <circle cx="8" cy="8" r="7.5" fill="none"/>
      </g>
      <g id="Ellipse_93-2" data-name="Ellipse 93" transform="translate(270 2016)" fill="#fff" stroke="#707070" stroke-width="1">
        <circle cx="8" cy="8" r="8" stroke="none"/>
        <circle cx="8" cy="8" r="7.5" fill="none"/>
      </g>
      <g id="Ellipse_94-2" data-name="Ellipse 94" transform="translate(299 2016)" fill="#fff" stroke="#707070" stroke-width="1">
        <circle cx="8" cy="8" r="8" stroke="none"/>
        <circle cx="8" cy="8" r="7.5" fill="none"/>
      </g>
      <g id="Ellipse_95-2" data-name="Ellipse 95" transform="translate(329 2016)" fill="#fff" stroke="#707070" stroke-width="1">
        <circle cx="8" cy="8" r="8" stroke="none"/>
        <circle cx="8" cy="8" r="7.5" fill="none"/>
      </g>
      <g id="Ellipse_96-2" data-name="Ellipse 96" transform="translate(358 2016)" fill="#fff" stroke="#707070" stroke-width="1">
        <circle cx="8" cy="8" r="8" stroke="none"/>
        <circle cx="8" cy="8" r="7.5" fill="none"/>
      </g>
      <g id="Ellipse_97-2" data-name="Ellipse 97" transform="translate(387 2016)" fill="#fff" stroke="#707070" stroke-width="1">
        <circle cx="8" cy="8" r="8" stroke="none"/>
        <circle cx="8" cy="8" r="7.5" fill="none"/>
      </g>
    </g>
  </g>
</svg>
