<svg xmlns="http://www.w3.org/2000/svg" width="162" height="111" viewBox="0 0 162 111">
  <g id="Group_2471" data-name="Group 2471" transform="translate(-493 -1285)">
    <g id="Group_2388" data-name="Group 2388" transform="translate(83 43)">
      <g id="Group_1952" data-name="Group 1952" transform="translate(169 -708)">
        <g id="Ellipse_92" data-name="Ellipse 92" transform="translate(241 2016)" fill="#fff" stroke="#707070" stroke-width="1">
          <circle cx="8" cy="8" r="8" stroke="none"/>
          <circle cx="8" cy="8" r="7.5" fill="none"/>
        </g>
        <g id="Ellipse_93" data-name="Ellipse 93" transform="translate(270 2016)" fill="#fff" stroke="#707070" stroke-width="1">
          <circle cx="8" cy="8" r="8" stroke="none"/>
          <circle cx="8" cy="8" r="7.5" fill="none"/>
        </g>
        <g id="Ellipse_94" data-name="Ellipse 94" transform="translate(299 2016)" fill="#fff" stroke="#707070" stroke-width="1">
          <circle cx="8" cy="8" r="8" stroke="none"/>
          <circle cx="8" cy="8" r="7.5" fill="none"/>
        </g>
        <g id="Ellipse_95" data-name="Ellipse 95" transform="translate(329 2016)" fill="#fff" stroke="#707070" stroke-width="1">
          <circle cx="8" cy="8" r="8" stroke="none"/>
          <circle cx="8" cy="8" r="7.5" fill="none"/>
        </g>
        <g id="Ellipse_96" data-name="Ellipse 96" transform="translate(358 2016)" fill="#fff" stroke="#707070" stroke-width="1">
          <circle cx="8" cy="8" r="8" stroke="none"/>
          <circle cx="8" cy="8" r="7.5" fill="none"/>
        </g>
        <g id="Ellipse_97" data-name="Ellipse 97" transform="translate(387 2016)" fill="#fff" stroke="#707070" stroke-width="1">
          <circle cx="8" cy="8" r="8" stroke="none"/>
          <circle cx="8" cy="8" r="7.5" fill="none"/>
        </g>
      </g>
      <g id="Group_1953" data-name="Group 1953" transform="translate(169 -679)">
        <g id="Ellipse_92-2" data-name="Ellipse 92" transform="translate(241 2016)" fill="#fff" stroke="#707070" stroke-width="1">
          <circle cx="8" cy="8" r="8" stroke="none"/>
          <circle cx="8" cy="8" r="7.5" fill="none"/>
        </g>
        <g id="Ellipse_93-2" data-name="Ellipse 93" transform="translate(270 2016)" fill="#fff" stroke="#707070" stroke-width="1">
          <circle cx="8" cy="8" r="8" stroke="none"/>
          <circle cx="8" cy="8" r="7.5" fill="none"/>
        </g>
        <g id="Ellipse_94-2" data-name="Ellipse 94" transform="translate(299 2016)" fill="#fff" stroke="#707070" stroke-width="1">
          <circle cx="8" cy="8" r="8" stroke="none"/>
          <circle cx="8" cy="8" r="7.5" fill="none"/>
        </g>
        <g id="Ellipse_95-2" data-name="Ellipse 95" transform="translate(329 2016)" fill="#fff" stroke="#707070" stroke-width="1">
          <circle cx="8" cy="8" r="8" stroke="none"/>
          <circle cx="8" cy="8" r="7.5" fill="none"/>
        </g>
        <g id="Ellipse_96-2" data-name="Ellipse 96" transform="translate(358 2016)" fill="#fff" stroke="#707070" stroke-width="1">
          <circle cx="8" cy="8" r="8" stroke="none"/>
          <circle cx="8" cy="8" r="7.5" fill="none"/>
        </g>
        <g id="Ellipse_97-2" data-name="Ellipse 97" transform="translate(387 2016)" fill="#fff" stroke="#707070" stroke-width="1">
          <circle cx="8" cy="8" r="8" stroke="none"/>
          <circle cx="8" cy="8" r="7.5" fill="none"/>
        </g>
      </g>
    </g>
    <g id="Group_2391" data-name="Group 2391" transform="translate(83 -23)">
      <g id="Group_1952-2" data-name="Group 1952" transform="translate(169 -708)">
        <g id="Ellipse_92-3" data-name="Ellipse 92" transform="translate(241 2016)" fill="#fff" stroke="#707070" stroke-width="1">
          <circle cx="8" cy="8" r="8" stroke="none"/>
          <circle cx="8" cy="8" r="7.5" fill="none"/>
        </g>
        <g id="Ellipse_93-3" data-name="Ellipse 93" transform="translate(270 2016)" fill="#fff" stroke="#707070" stroke-width="1">
          <circle cx="8" cy="8" r="8" stroke="none"/>
          <circle cx="8" cy="8" r="7.5" fill="none"/>
        </g>
        <g id="Ellipse_94-3" data-name="Ellipse 94" transform="translate(299 2016)" fill="#fff" stroke="#707070" stroke-width="1">
          <circle cx="8" cy="8" r="8" stroke="none"/>
          <circle cx="8" cy="8" r="7.5" fill="none"/>
        </g>
        <g id="Ellipse_95-3" data-name="Ellipse 95" transform="translate(329 2016)" fill="#fff" stroke="#707070" stroke-width="1">
          <circle cx="8" cy="8" r="8" stroke="none"/>
          <circle cx="8" cy="8" r="7.5" fill="none"/>
        </g>
        <g id="Ellipse_96-3" data-name="Ellipse 96" transform="translate(358 2016)" fill="#fff" stroke="#707070" stroke-width="1">
          <circle cx="8" cy="8" r="8" stroke="none"/>
          <circle cx="8" cy="8" r="7.5" fill="none"/>
        </g>
        <g id="Ellipse_97-3" data-name="Ellipse 97" transform="translate(387 2016)" fill="#fff" stroke="#707070" stroke-width="1">
          <circle cx="8" cy="8" r="8" stroke="none"/>
          <circle cx="8" cy="8" r="7.5" fill="none"/>
        </g>
      </g>
      <g id="Group_1953-2" data-name="Group 1953" transform="translate(169 -679)">
        <g id="Ellipse_92-4" data-name="Ellipse 92" transform="translate(241 2016)" fill="#fff" stroke="#707070" stroke-width="1">
          <circle cx="8" cy="8" r="8" stroke="none"/>
          <circle cx="8" cy="8" r="7.5" fill="none"/>
        </g>
        <g id="Ellipse_93-4" data-name="Ellipse 93" transform="translate(270 2016)" fill="#fff" stroke="#707070" stroke-width="1">
          <circle cx="8" cy="8" r="8" stroke="none"/>
          <circle cx="8" cy="8" r="7.5" fill="none"/>
        </g>
        <g id="Ellipse_94-4" data-name="Ellipse 94" transform="translate(299 2016)" fill="#fff" stroke="#707070" stroke-width="1">
          <circle cx="8" cy="8" r="8" stroke="none"/>
          <circle cx="8" cy="8" r="7.5" fill="none"/>
        </g>
        <g id="Ellipse_95-4" data-name="Ellipse 95" transform="translate(329 2016)" fill="#fff" stroke="#707070" stroke-width="1">
          <circle cx="8" cy="8" r="8" stroke="none"/>
          <circle cx="8" cy="8" r="7.5" fill="none"/>
        </g>
        <g id="Ellipse_96-4" data-name="Ellipse 96" transform="translate(358 2016)" fill="#fff" stroke="#707070" stroke-width="1">
          <circle cx="8" cy="8" r="8" stroke="none"/>
          <circle cx="8" cy="8" r="7.5" fill="none"/>
        </g>
        <g id="Ellipse_97-4" data-name="Ellipse 97" transform="translate(387 2016)" fill="#fff" stroke="#707070" stroke-width="1">
          <circle cx="8" cy="8" r="8" stroke="none"/>
          <circle cx="8" cy="8" r="7.5" fill="none"/>
        </g>
      </g>
    </g>
  </g>
</svg>
