<svg xmlns="http://www.w3.org/2000/svg" width="15" height="15" viewBox="0 0 15 15"><g transform="translate(-0.5 0.001)"><path d="M337.662,155.148a.322.322,0,1,0,.322.322A.322.322,0,0,0,337.662,155.148Zm0,0" transform="translate(-327.012 -150.622)"/><path d="M155.967,336.84a.322.322,0,1,0,.322.322A.322.322,0,0,0,155.967,336.84Zm0,0" transform="translate(-150.618 -327.013)"/><path d="M15.135,1.8a.293.293,0,0,0-.274.079L13.647,3.1h-.582l-.641-.664V1.85L13.62.635a.293.293,0,0,0-.115-.483A2.932,2.932,0,0,0,9.739,3.688L7.581,5.846l-3.6-3.6V1.535a.293.293,0,0,0-.142-.251L1.772.041a.293.293,0,0,0-.358.044L.586.913a.293.293,0,0,0-.044.358L1.785,3.343a.293.293,0,0,0,.251.142h.707l3.6,3.6-2.15,2.15A2.932,2.932,0,0,0,.653,13a.293.293,0,0,0,.486.113l1.214-1.224h.585l.667.667v.585L2.381,14.36a.293.293,0,0,0,.113.486,2.93,2.93,0,0,0,3.313-1.067A2.9,2.9,0,0,0,6.26,11.31L7.987,9.583l.4.43-.182.181a.293.293,0,0,0,.414.414l.164-.164,3.711,4.031.008.009A1.758,1.758,0,0,0,14.985,12l-.009-.009-4.037-3.7.163-.163a.293.293,0,0,0-.414-.414l-.18.18-.43-.4,1.735-1.735a2.931,2.931,0,0,0,3.536-3.766.293.293,0,0,0-.211-.192ZM3.072,2.986A.29.29,0,0,0,2.864,2.9H2.2L1.162,1.166,1.667.661,3.4,1.7v.663a.293.293,0,0,0,.086.207L7.167,6.26l-.414.414ZM10.524,8.7l4.051,3.716a1.172,1.172,0,0,1-1.658,1.657L9.194,10.03Zm-.432-.4L8.8,9.6l-.4-.43,1.26-1.26ZM12.57,5.273a2.341,2.341,0,0,1-.749-.122.293.293,0,0,0-.3.07l-5.8,5.8a.293.293,0,0,0-.07.3,2.346,2.346,0,0,1-2.222,3.092,2.4,2.4,0,0,1-.255-.014l.931-.923a.293.293,0,0,0,.087-.208v-.829a.293.293,0,0,0-.086-.207l-.839-.839a.293.293,0,0,0-.207-.086H2.231a.293.293,0,0,0-.208.087l-.923.931a2.37,2.37,0,0,1-.014-.255A2.346,2.346,0,0,1,4.178,9.848a.293.293,0,0,0,.3-.07l5.8-5.8a.293.293,0,0,0,.07-.3A2.346,2.346,0,0,1,12.57.585,2.394,2.394,0,0,1,12.833.6l-.911.925a.293.293,0,0,0-.084.206v.829a.293.293,0,0,0,.082.2l.809.839a.293.293,0,0,0,.211.089h.829a.293.293,0,0,0,.208-.087l.923-.93a2.37,2.37,0,0,1,.014.255A2.346,2.346,0,0,1,12.57,5.273Zm0,0" transform="translate(0 0)"/><path d="M188.051,183.52l-4.033,4.033a.322.322,0,0,0,.456.456l4.033-4.033a.322.322,0,1,0-.456-.456Zm0,0" transform="translate(-178.263 -178.265)"/><path d="M348.278,348.518a.322.322,0,1,0,.455-.456l-2.9-2.9a.322.322,0,0,0-.455.456Zm0,0" transform="translate(-335.168 -335.452)"/></g></svg>