<svg xmlns="http://www.w3.org/2000/svg" width="66" height="51.387" viewBox="0 0 66 51.387">
  <g id="Group_2897" data-name="Group 2897" transform="translate(-1218 -640.613)">
    <rect id="Rectangle_837" data-name="Rectangle 837" width="66" height="29" rx="14.5" transform="translate(1218 663)" fill="#f15a24"/>
    <g id="Group_2893" data-name="Group 2893" transform="translate(-19089.367 -3818.387)">
      <g id="jobs" transform="translate(20314 4459)">
        <g id="Group_2894" data-name="Group 2894" transform="translate(0 23.043)">
          <g id="Group_2893-2" data-name="Group 2893">
            <path id="Path_1542" data-name="Path 1542" d="M48.438,237.583a4.393,4.393,0,0,0-6.049.365l-4.306,4.622a4.4,4.4,0,0,0-4.2-3.092H26.2c-.583,0-.778-.223-1.791-1a10.275,10.275,0,0,0-13.511.032l-2.824,2.486a4.376,4.376,0,0,0-4.028-.051L.81,242.563a1.466,1.466,0,0,0-.655,1.966l8.789,17.578a1.466,1.466,0,0,0,1.966.655l3.239-1.62a4.391,4.391,0,0,0,2.428-4.085h17.31a10.3,10.3,0,0,0,8.2-4.1l7.032-9.377A4.382,4.382,0,0,0,48.438,237.583Zm-35.6,20.938-1.929.965L3.43,244.529l1.93-.965a1.464,1.464,0,0,1,1.965.655l6.169,12.338A1.465,1.465,0,0,1,12.838,258.522Zm33.94-16.7L39.746,251.2a7.358,7.358,0,0,1-5.859,2.93H15.554l-5.489-10.979,2.772-2.44a7.342,7.342,0,0,1,9.678,0c1.625,1.431,2.636,1.7,3.688,1.7h7.684a1.465,1.465,0,1,1,0,2.93H26.405a1.465,1.465,0,0,0,0,2.93h8.463a4.407,4.407,0,0,0,3.216-1.4l6.449-6.923a1.465,1.465,0,0,1,2.245,1.875Z" transform="translate(0 -235.959)"/>
          </g>
        </g>
        <g id="Group_2896" data-name="Group 2896" transform="translate(17.676)">
          <g id="Group_2895" data-name="Group 2895">
            <path id="Path_1543" data-name="Path 1543" d="M194.119,10.009A5.836,5.836,0,0,0,195.74,5.97,5.939,5.939,0,0,0,189.881.013a6.036,6.036,0,0,0-5.957,5.957,5.751,5.751,0,0,0,1.675,4.051,8.936,8.936,0,0,0-4.6,7.766v1.465a1.465,1.465,0,0,0,1.465,1.465H197.2a1.465,1.465,0,0,0,1.465-1.465V17.786A8.929,8.929,0,0,0,194.119,10.009Zm-4.238-7.066a3.02,3.02,0,0,1,2.93,3.027,2.933,2.933,0,0,1-2.93,2.93,3.02,3.02,0,0,1-3.027-2.93A3.107,3.107,0,0,1,189.881,2.943Zm-5.957,14.844a6.036,6.036,0,0,1,5.957-5.957,5.915,5.915,0,0,1,5.859,5.957Z" transform="translate(-180.994 -0.013)"/>
          </g>
        </g>
      </g>
    </g>
  </g>
</svg>
