<svg xmlns="http://www.w3.org/2000/svg" width="40" height="35" viewBox="0 0 40 35"><defs><style>.a{fill:#0265c9;}</style></defs><g transform="translate(852 476) rotate(180)"><g transform="translate(812 441)"><g transform="translate(0 0)"><path class="a" d="M32.5,68.25a2.5,2.5,0,0,1-2.5,2.5H5a2.5,2.5,0,0,1-2.5-2.5v-25A2.5,2.5,0,0,1,5,40.75H30a2.5,2.5,0,0,1,2.5,2.5V47H35V43.25a5,5,0,0,0-5-5H5a5,5,0,0,0-5,5v25a5,5,0,0,0,5,5H30a5,5,0,0,0,5-5V64.5H32.5ZM38.75,54.5H11.768l6.554-6.554a1.25,1.25,0,0,0-1.767-1.767L7.93,54.8a1.44,1.44,0,0,0,0,1.893l8.624,8.624a1.25,1.25,0,1,0,1.767-1.768L11.768,57H38.75a1.25,1.25,0,0,0,0-2.5Z" transform="translate(0 -38.25)"/></g></g></g></svg>