<svg xmlns="http://www.w3.org/2000/svg" width="58.144" height="50" viewBox="0 0 58.144 50"><defs><style>.a{fill:#45a357;}</style></defs><g transform="translate(-144 -919)"><rect class="a" width="27" height="47" rx="5" transform="translate(144 922)"/><g transform="translate(148.545 919)"><g transform="translate(0)"><g transform="translate(0 0)"><path d="M50.982,61.954h-.664V48.989a.785.785,0,0,0-1.57,0V61.954H32.091V40.611H48.105a.642.642,0,0,1,.642.642V45.29a.785.785,0,0,0,1.57,0V41.253a2.214,2.214,0,0,0-2.212-2.212H32.091V24.773a2.223,2.223,0,0,0-2.026-2.2V20.994a2.223,2.223,0,0,0-2.039-2.205L7.692,17.2A2.213,2.213,0,0,0,5.307,19.4v1.257a2.212,2.212,0,0,0-2.026,2.2V61.954H2.617a2.617,2.617,0,0,0,0,5.234H50.982a2.617,2.617,0,1,0,0-5.234ZM6.878,19.4a.641.641,0,0,1,.692-.64L27.9,20.355a.645.645,0,0,1,.591.64v1.451L6.878,20.751V19.4ZM4.852,22.862a.641.641,0,0,1,.692-.64l24.386,1.911a.645.645,0,0,1,.592.64V61.954H28.327V50.713a1.3,1.3,0,0,0-1.3-1.3H19.737a1.3,1.3,0,0,0-1.3,1.3v5.093a.785.785,0,1,0,1.57,0V50.988h6.746V61.954H20.011V59.477a.785.785,0,1,0-1.57,0v2.477H4.852Zm46.13,42.757H2.617a1.047,1.047,0,0,1,0-2.094H50.982a1.047,1.047,0,0,1,0,2.094Z" transform="translate(0 -17.188)"/><path d="M64.318,118.857H67.5a1.356,1.356,0,0,0,1.355-1.355v-2.445A1.356,1.356,0,0,0,67.5,113.7H64.318a1.356,1.356,0,0,0-1.355,1.355V117.5A1.356,1.356,0,0,0,64.318,118.857Zm.215-3.585h2.747v2.014H64.533Z" transform="translate(-56.372 -103.598)"/><path d="M140.012,118.857h3.178a1.356,1.356,0,0,0,1.355-1.355v-2.445a1.356,1.356,0,0,0-1.355-1.355h-3.178a1.356,1.356,0,0,0-1.355,1.355V117.5A1.356,1.356,0,0,0,140.012,118.857Zm.215-3.585h2.747v2.014h-2.747Z" transform="translate(-124.142 -103.598)"/><path d="M215.7,118.857h3.178a1.356,1.356,0,0,0,1.355-1.355v-2.445a1.356,1.356,0,0,0-1.355-1.355H215.7a1.356,1.356,0,0,0-1.355,1.355V117.5A1.356,1.356,0,0,0,215.7,118.857Zm.215-3.585h2.747v2.014H215.92Z" transform="translate(-191.911 -103.598)"/><path d="M64.318,186.293H67.5a1.356,1.356,0,0,0,1.355-1.355v-2.445a1.356,1.356,0,0,0-1.355-1.355H64.318a1.356,1.356,0,0,0-1.355,1.355v2.445A1.356,1.356,0,0,0,64.318,186.293Zm.215-3.585h2.747v2.014H64.533Z" transform="translate(-56.372 -163.975)"/><path d="M140.012,186.293h3.178a1.356,1.356,0,0,0,1.355-1.355v-2.445a1.356,1.356,0,0,0-1.355-1.355h-3.178a1.356,1.356,0,0,0-1.355,1.355v2.445A1.356,1.356,0,0,0,140.012,186.293Zm.215-3.585h2.747v2.014h-2.747Z" transform="translate(-124.142 -163.975)"/><path d="M215.7,186.293h3.178a1.356,1.356,0,0,0,1.355-1.355v-2.445a1.356,1.356,0,0,0-1.355-1.355H215.7a1.356,1.356,0,0,0-1.355,1.355v2.445A1.356,1.356,0,0,0,215.7,186.293Zm.215-3.585h2.747v2.014H215.92Z" transform="translate(-191.911 -163.975)"/><path d="M64.318,253.73H67.5a1.356,1.356,0,0,0,1.355-1.355V249.93a1.356,1.356,0,0,0-1.355-1.355H64.318a1.356,1.356,0,0,0-1.355,1.355v2.445A1.356,1.356,0,0,0,64.318,253.73Zm.215-3.585h2.747v2.014H64.533Z" transform="translate(-56.372 -224.352)"/><path d="M71.5,325.052H64.47a1.509,1.509,0,0,0-1.507,1.507v2.14a1.509,1.509,0,0,0,1.507,1.507H71.5a1.509,1.509,0,0,0,1.507-1.507v-2.14A1.509,1.509,0,0,0,71.5,325.052Zm-.063,3.585H64.533v-2.014h6.908Z" transform="translate(-56.372 -292.823)"/><path d="M140.012,253.73h3.178a1.356,1.356,0,0,0,1.355-1.355V249.93a1.356,1.356,0,0,0-1.355-1.355h-3.178a1.356,1.356,0,0,0-1.355,1.355v2.445A1.356,1.356,0,0,0,140.012,253.73Zm.215-3.585h2.747v2.014h-2.747Z" transform="translate(-124.142 -224.352)"/><path d="M215.7,253.73h3.178a1.356,1.356,0,0,0,1.355-1.355V249.93a1.356,1.356,0,0,0-1.355-1.355H215.7a1.356,1.356,0,0,0-1.355,1.355v2.445A1.356,1.356,0,0,0,215.7,253.73Zm.215-3.585h2.747v2.014H215.92Z" transform="translate(-191.911 -224.352)"/><path d="M328.446,278.944A1.446,1.446,0,0,0,327,277.5H323.8a1.446,1.446,0,0,0-1.444,1.444v2.543a1.446,1.446,0,0,0,1.444,1.444H327a1.446,1.446,0,0,0,1.444-1.444Zm-1.57,2.417h-2.954V279.07h2.954Z" transform="translate(-288.606 -250.249)"/><path d="M327,346.717H323.8a1.446,1.446,0,0,0-1.444,1.444V350.7a1.446,1.446,0,0,0,1.444,1.444H327a1.446,1.446,0,0,0,1.444-1.444v-2.543A1.446,1.446,0,0,0,327,346.717Zm-.126,3.862h-2.954v-2.291h2.954Z" transform="translate(-288.606 -312.22)"/><path d="M398.207,278.944a1.446,1.446,0,0,0-1.444-1.444h-3.206a1.446,1.446,0,0,0-1.444,1.444v2.543a1.446,1.446,0,0,0,1.444,1.444h3.206a1.446,1.446,0,0,0,1.444-1.444Zm-1.57,2.417h-2.954V279.07h2.954Z" transform="translate(-351.064 -250.249)"/><path d="M396.763,346.717h-3.206a1.446,1.446,0,0,0-1.444,1.444V350.7a1.446,1.446,0,0,0,1.444,1.444h3.206a1.446,1.446,0,0,0,1.444-1.444v-2.543A1.446,1.446,0,0,0,396.763,346.717Zm-.126,3.862h-2.954v-2.291h2.954Z" transform="translate(-351.064 -312.22)"/></g></g></g></g></svg>