<svg xmlns="http://www.w3.org/2000/svg" width="75.445" height="55" viewBox="0 0 75.445 55">
  <g id="Group_1951" data-name="Group 1951" transform="translate(-133.5 -782)">
    <rect id="Rectangle_335" data-name="Rectangle 335" width="27" height="72" rx="13" transform="translate(133.5 836.5) rotate(-90)" fill="#f15a24"/>
    <g id="welcome" transform="translate(147 753.3)">
      <g id="Group_1865" data-name="Group 1865" transform="translate(0 28.7)">
        <g id="Group_1864" data-name="Group 1864" transform="translate(0 0)">
          <path id="Path_1226" data-name="Path 1226" d="M56.436,35.7H54.779c0-9.331-12.985-9.341-12.985,0H20.151c0-9.331-12.985-9.341-12.985,0H5.509A5.515,5.515,0,0,0,0,41.211V63.6a5.515,5.515,0,0,0,5.509,5.509H7.166V81.339A2.361,2.361,0,0,0,9.527,83.7H17.79a2.361,2.361,0,0,0,2.361-2.361V69.108H41.793V81.339A2.361,2.361,0,0,0,44.154,83.7h8.263a2.361,2.361,0,0,0,2.361-2.361V69.108h1.657A5.515,5.515,0,0,0,61.945,63.6V41.211A5.515,5.515,0,0,0,56.436,35.7Zm-6.379,0H46.515C46.515,32.639,50.057,32.6,50.057,35.7Zm-34.627,0H11.888C11.888,32.639,15.429,32.6,15.429,35.7Zm0,43.276H11.888v-9.87h3.541v9.87Zm34.627,0H46.515v-9.87h3.541ZM57.223,63.6a.788.788,0,0,1-.787.787H5.509a.788.788,0,0,1-.787-.787V41.211a.788.788,0,0,1,.787-.787H56.436a.788.788,0,0,1,.787.787Z" transform="translate(0 -28.7)"/>
          <path id="Path_1227" data-name="Path 1227" d="M65.38,190.415l-1.516,5.116-.788-3.37c-.121-.543-1.375-.544-1.5,0l-.788,3.37-1.516-5.116c-.175-.611-1.691-.156-1.486.459l1.984,6.083c.222.708,1.88.674,2.034,0l.519-2.363.518,2.363c.152.664,1.788.718,2.034,0l1.984-6.083C67.069,190.256,65.554,189.8,65.38,190.415Z" transform="translate(-50.783 -170.595)"/>
          <path id="Path_1228" data-name="Path 1228" d="M148.624,191.482c.616,0,.636-1.356,0-1.356h-3.55c-.339,0-.678.16-.678.479v6.332c0,.319.339.479.678.479h3.55c.636,0,.617-1.356,0-1.356h-2.672v-1.7h1.5c.634,0,.615-1.2,0-1.2h-1.5v-1.685Z" transform="translate(-126.926 -170.596)"/>
          <path id="Path_1229" data-name="Path 1229" d="M199.245,196.059h-2.273v-5.464c0-.329-.389-.469-.778-.469s-.778.14-.778.469v6.342c0,.319.339.479.678.479h3.151C199.843,197.415,199.843,196.059,199.245,196.059Z" transform="translate(-171.773 -170.596)"/>
          <path id="Path_1230" data-name="Path 1230" d="M243.453,191.287a.8.8,0,0,1,.888.9c.02.359.359.469.778.469.528,0,.778-.14.778-.738,0-2.493-4.9-2.992-4.9.369v2.643c0,3.354,4.9,2.9,4.9.269,0-.6-.249-.738-.788-.738-.4,0-.738.1-.768.469-.03.389-.08,1-.878,1-.578,0-.907-.319-.907-1v-2.642C242.556,191.606,242.885,191.287,243.453,191.287Z" transform="translate(-211.842 -170.401)"/>
          <path id="Path_1231" data-name="Path 1231" d="M296.359,190.126a2.16,2.16,0,0,0-2.443,2.353v2.643a2.45,2.45,0,0,0,4.9,0v-2.643A2.167,2.167,0,0,0,296.359,190.126Zm.9,5c0,.688-.339,1-.9,1s-.888-.309-.888-1v-2.643c0-.688.329-1,.888-1s.9.309.9,1Z" transform="translate(-258.356 -170.596)"/>
          <path id="Path_1232" data-name="Path 1232" d="M354.469,190.127c-.559,0-.8.06-1.207.778l-1.027,1.795-1.027-1.795c-.409-.718-.648-.778-1.207-.778a.72.72,0,0,0-.778.778v6.033c0,.638,1.556.638,1.556,0V193.1l.947,1.735a.58.58,0,0,0,1.007,0l.957-1.635v3.739c0,.638,1.556.638,1.556,0V190.9A.715.715,0,0,0,354.469,190.127Z" transform="translate(-306.973 -170.597)"/>
          <path id="Path_1233" data-name="Path 1233" d="M418.733,191.482c.616,0,.636-1.356,0-1.356h-3.55c-.339,0-.678.16-.678.479v6.332c0,.319.339.479.678.479h3.55c.636,0,.617-1.356,0-1.356h-2.672v-1.7h1.5c.634,0,.615-1.2,0-1.2h-1.5v-1.685Z" transform="translate(-364.356 -170.596)"/>
        </g>
      </g>
    </g>
  </g>
</svg>
