<svg xmlns="http://www.w3.org/2000/svg" width="1920.508" height="459.506" viewBox="0 0 1920.508 459.506">
  <g id="Group_3059" data-name="Group 3059" transform="translate(-14135.594 -2964)">
    <path id="Path_1570" data-name="Path 1570" d="M3148.172,2518.4h0A103.672,103.672,0,0,1,3044.5,2622.072v50.834A154.507,154.507,0,0,0,3199.007,2518.4h-50.835Z" transform="translate(11091.094 445.6)" fill="#f4f4f8" opacity="0.5"/>
    <path id="Path_1571" data-name="Path 1571" d="M3148.172,2518.4h0A103.672,103.672,0,0,1,3044.5,2622.072v50.834A154.507,154.507,0,0,0,3199.007,2518.4h-50.835Z" transform="translate(19100.602 5941.907) rotate(180)" fill="#f4f4f8" opacity="0.5"/>
    <g id="Group_3058" data-name="Group 3058" transform="translate(13763.299 2692.632)">
      <path id="Path_1394" data-name="Path 1394" d="M1309.079,376.368a65.3,65.3,0,1,0,65.3,65.3h0A65.3,65.3,0,0,0,1309.079,376.368Zm0,99.5a34.205,34.205,0,0,1,0-68.41h0a34.205,34.205,0,1,1,.027,68.41Z" transform="translate(74.695 0)" fill="#f9f9fb"/>
      <path id="Path_1395" data-name="Path 1395" d="M1580.454,479.987a15.628,15.628,0,0,0-23.495-13.5l-145.977,85.041a39.646,39.646,0,0,1-45.866-3.886L1279.6,472.232a69.189,69.189,0,0,0-86.29-3.11l-96.176,69.946a15.637,15.637,0,0,0-6.438,12.645h0a15.636,15.636,0,0,0,24.9,12.6L1211.2,494a37.314,37.314,0,0,1,48.2,2.332l84.735,74.626A73.082,73.082,0,0,0,1390,588.068a70.752,70.752,0,0,0,37.315-10.106l145.048-83.937a16.219,16.219,0,0,0,8.1-14.037Z" transform="translate(0 38.623)" fill="#f9f9fb"/>
    </g>
  </g>
</svg>
