<svg xmlns="http://www.w3.org/2000/svg" width="34.41" height="38.479" viewBox="0 0 34.41 38.479"><defs><style>.a{fill:#45a357;}</style></defs><g transform="translate(-1484.22 -532)"><rect class="a" width="14.287" height="34.41" rx="6" transform="translate(1518.63 556.191) rotate(90)"/><g transform="translate(1487.92 532)"><path d="M34.253,7.609l-.481-.481-6.3-6.3L26.988.343A1.181,1.181,0,0,0,26.158,0H8.038A1.619,1.619,0,0,0,6.5,1.827V34.965a1.431,1.431,0,0,0,1.148,1.193c.031.008.061.02.094.026a1.522,1.522,0,0,0,.3.03H33.059a1.522,1.522,0,0,0,.3-.03c.032-.006.062-.018.094-.026A1.431,1.431,0,0,0,34.6,34.965V8.727A1.439,1.439,0,0,0,34.253,7.609Zm-1.882-.117H27.1V2.226ZM8.038,34.965a.36.36,0,0,1-.124-.031.286.286,0,0,1-.165-.258V25.6h25.6v9.076a.287.287,0,0,1-.165.258.36.36,0,0,1-.124.031ZM7.749,24.35V1.827c0-.135.021-.578.289-.578H25.892a.962.962,0,0,0-.036.244V8.741H33.1a.957.957,0,0,0,.244-.036c0,.009,0,.013,0,.022V24.35Z" transform="translate(-6.5)"/><path d="M20.052,44.436a2.147,2.147,0,0,0-.7-.384,2.54,2.54,0,0,0-.794-.128H16.745v6.291H17.77V47.944h.76a2.693,2.693,0,0,0,.9-.145,2.04,2.04,0,0,0,.7-.41,1.819,1.819,0,0,0,.453-.653,2.231,2.231,0,0,0,.162-.867,1.718,1.718,0,0,0-.192-.815A2.007,2.007,0,0,0,20.052,44.436Zm-.388,2.079a1.03,1.03,0,0,1-.247.405.936.936,0,0,1-.337.209,1.129,1.129,0,0,1-.371.064h-.939V44.7h.768a1.382,1.382,0,0,1,.632.124,1.035,1.035,0,0,1,.372.307,1.022,1.022,0,0,1,.175.384,1.748,1.748,0,0,1,.042.354A1.921,1.921,0,0,1,19.664,46.515Z" transform="translate(-10.348 -16.499)"/><path d="M29.373,44.846a2.891,2.891,0,0,0-1-.67,3.6,3.6,0,0,0-1.4-.252H25.084v6.291h2.381a3.4,3.4,0,0,0,.367-.03,2.52,2.52,0,0,0,.546-.137,2.862,2.862,0,0,0,.619-.32,2.171,2.171,0,0,0,.576-.585A3.3,3.3,0,0,0,30,48.221a4.622,4.622,0,0,0,.167-1.327,3.159,3.159,0,0,0-.2-1.1A2.77,2.77,0,0,0,29.373,44.846ZM28.627,48.8a1.7,1.7,0,0,1-1.5.666H26.109V44.7h.6a3.143,3.143,0,0,1,1.2.192,1.915,1.915,0,0,1,.73.5,1.662,1.662,0,0,1,.363.7,3.268,3.268,0,0,1,.094.777A3.378,3.378,0,0,1,28.627,48.8Z" transform="translate(-13.481 -16.499)"/><path d="M35.6,50.215h1.041V47.381h2.629v-.7H36.639V44.7h2.893v-.777H35.6Z" transform="translate(-17.43 -16.499)"/><path d="M30.912,17.306a12.085,12.085,0,0,0-2.1.224,19.951,19.951,0,0,1-3.177-4.722c.835-3.515.417-4.012.233-4.247s-.473-.655-.787-.655a3.079,3.079,0,0,0-.634.107,1.2,1.2,0,0,0-.708.759c-.441,1.032.164,2.792.787,4.148a41.912,41.912,0,0,1-2.365,6.712C19.8,20.716,18.54,21.78,18.427,22.8a1.5,1.5,0,0,0,.7,1.4,1,1,0,0,0,.6.2h0c.546,0,1.1-.418,1.737-1.316a17.716,17.716,0,0,0,1.488-2.654,29.917,29.917,0,0,1,5.512-1.762,4.152,4.152,0,0,0,2.629,1.427,1.658,1.658,0,0,0,1.386-.744A1.263,1.263,0,0,0,32.722,18C32.482,17.534,31.89,17.306,30.912,17.306Zm-11.171,6.04c-.292-.224-.275-.375-.269-.432.039-.347.583-.963,1.917-1.713C20.377,23.068,19.834,23.316,19.741,23.345ZM24.86,9.034c.027-.009.652.687.06,2.008A1.5,1.5,0,0,1,24.86,9.034ZM23.57,19.04a44.512,44.512,0,0,0,1.67-4.723,21.372,21.372,0,0,0,2.386,3.462A31.1,31.1,0,0,0,23.57,19.04Zm8.055-.3a.941.941,0,0,1-.755.275c-.333,0-.457-.2-.966-.589a8.988,8.988,0,0,1,1.131-.067c.555,0,.657.082.734.123A.969.969,0,0,1,31.625,18.741Z" transform="translate(-10.977 -2.97)"/></g></g></svg>