<svg xmlns="http://www.w3.org/2000/svg" width="15.517" height="20" viewBox="0 0 15.517 20"><defs><style>.a{fill:#757575;}</style></defs><path class="a" d="M21.828,4.2l-.266-.266L18.081.456,17.815.19A.652.652,0,0,0,17.357,0H7.349A.894.894,0,0,0,6.5,1.009v18.3a.79.79,0,0,0,.634.659c.017,0,.034.011.052.014A.84.84,0,0,0,7.349,20H21.168a.84.84,0,0,0,.164-.017c.018,0,.034-.01.052-.014a.79.79,0,0,0,.634-.659V4.82A.8.8,0,0,0,21.828,4.2Zm-1.04-.064H17.879V1.229ZM7.349,19.31a.2.2,0,0,1-.068-.017.158.158,0,0,1-.091-.143V14.138H21.328v5.013a.158.158,0,0,1-.091.143.2.2,0,0,1-.068.017Zm-.16-5.862V1.009c0-.075.011-.319.16-.319h9.86a.531.531,0,0,0-.02.135v4h4a.528.528,0,0,0,.134-.02c0,.005,0,.007,0,.012v8.628Z" transform="translate(-6.5)"/><path class="a" d="M18.572,44.207a1.186,1.186,0,0,0-.389-.212,1.4,1.4,0,0,0-.438-.071h-1V47.4h.566V46.144h.42a1.488,1.488,0,0,0,.5-.08,1.126,1.126,0,0,0,.387-.226,1,1,0,0,0,.25-.361,1.232,1.232,0,0,0,.09-.479.949.949,0,0,0-.106-.45A1.109,1.109,0,0,0,18.572,44.207Zm-.214,1.148a.569.569,0,0,1-.137.224.517.517,0,0,1-.186.116.624.624,0,0,1-.205.036h-.519V44.353h.424a.763.763,0,0,1,.349.068.571.571,0,0,1,.205.17.565.565,0,0,1,.1.212.965.965,0,0,1,.023.2A1.061,1.061,0,0,1,18.357,45.355Z" transform="translate(-13.212 -28.778)"/><path class="a" d="M27.453,44.433a1.6,1.6,0,0,0-.552-.37,1.991,1.991,0,0,0-.771-.139H25.084V47.4H26.4a1.875,1.875,0,0,0,.2-.017,1.392,1.392,0,0,0,.3-.076,1.581,1.581,0,0,0,.342-.177,1.2,1.2,0,0,0,.318-.323A1.822,1.822,0,0,0,27.8,46.3a2.553,2.553,0,0,0,.092-.733,1.745,1.745,0,0,0-.108-.606A1.53,1.53,0,0,0,27.453,44.433Zm-.412,2.183a.937.937,0,0,1-.83.368H25.65V44.353h.33a1.736,1.736,0,0,1,.66.106,1.057,1.057,0,0,1,.4.278.918.918,0,0,1,.2.384,1.8,1.8,0,0,1,.052.429A1.865,1.865,0,0,1,27.041,46.616Z" transform="translate(-18.676 -28.778)"/><path class="a" d="M35.6,47.4h.575V45.833h1.452v-.387H36.173V44.353h1.6v-.429H35.6Z" transform="translate(-25.564 -28.778)"/><path class="a" d="M25.318,13.1a6.674,6.674,0,0,0-1.158.123,11.019,11.019,0,0,1-1.754-2.608c.461-1.941.23-2.216.129-2.346s-.261-.362-.435-.362a1.7,1.7,0,0,0-.35.059.662.662,0,0,0-.391.419,3.405,3.405,0,0,0,.435,2.291,23.147,23.147,0,0,1-1.306,3.707c-1.307.6-2,1.187-2.064,1.748a.826.826,0,0,0,.384.773.554.554,0,0,0,.333.112h0c.3,0,.607-.231.959-.727a9.784,9.784,0,0,0,.822-1.466,16.522,16.522,0,0,1,3.044-.973,2.293,2.293,0,0,0,1.452.788.916.916,0,0,0,.766-.411.7.7,0,0,0,.134-.745C26.185,13.224,25.858,13.1,25.318,13.1Zm-6.17,3.336c-.161-.124-.152-.207-.149-.239.021-.192.322-.532,1.059-.946C19.5,16.28,19.2,16.417,19.148,16.433Zm2.828-7.9c.015,0,.36.38.033,1.109A.827.827,0,0,1,21.976,8.529Zm-.713,5.526a24.583,24.583,0,0,0,.922-2.608A11.8,11.8,0,0,0,23.5,13.358,17.177,17.177,0,0,0,21.263,14.055Zm4.449-.165a.519.519,0,0,1-.417.152c-.184,0-.252-.109-.533-.326a4.964,4.964,0,0,1,.624-.037c.307,0,.363.045.405.068A.535.535,0,0,1,25.712,13.89Z" transform="translate(-14.308 -5.18)"/></svg>