<svg xmlns="http://www.w3.org/2000/svg" width="256.942" height="233.888" viewBox="0 0 256.942 233.888"><defs><style>.a{fill:#fff;}.a,.b,.c,.e{stroke:#ccc;}.a,.b,.c,.d,.e{stroke-linecap:round;stroke-linejoin:round;stroke-width:2px;}.b{fill:#e6e6e6;}.c{fill:gray;}.d,.e{fill:none;stroke-dasharray:16.57;}.d{stroke:#cbcbcb;}</style></defs><g transform="translate(-849.915 -2287.363)"><g transform="translate(853.699 2288.363)"><path class="a" d="M1972.59,4444.395l15.056,5.438,47.67-20.506Z" transform="translate(-1972.59 -4429.326)"/><path class="b" d="M1992.987,4449.832l.909,23.934,10.124-19.037,36.637-25.4Z" transform="translate(-1977.931 -4429.326)"/><path class="a" d="M2007.934,4454.729l3.379,22.56,33.258-47.962Z" transform="translate(-1981.844 -4429.326)"/><path class="c" d="M1994.219,4482.777l11.768-8.059-1.644-10.978Z" transform="translate(-1978.253 -4438.337)"/></g><path class="d" d="M-86.246-68.139s-36.957,52-2.674,86.084A55.964,55.964,0,0,0-36.546,32.361C11.024,21.1,132.2-6.311,147.607,48.3c17.784,63.039-34.735,68-34.735,68" transform="translate(954.494 2403.859)"/><path class="e" d="M-86.246-68.139s-36.957,52-2.674,86.084A55.964,55.964,0,0,0-36.546,32.361C11.024,21.1,132.2-6.311,147.607,48.3c17.784,63.039-34.735,68-34.735,68" transform="translate(954.494 2403.859)"/></g></svg>