<svg xmlns="http://www.w3.org/2000/svg" width="207.159" height="31.862" viewBox="0 0 207.159 31.862"><defs><style>.a{fill:none;stroke:#707070;}</style></defs><g transform="translate(-2085.53 -2030.499)"><g transform="translate(2086 2030.322)"><path class="a" d="M32.143,12.4c-.494-1.545-3.213-1.9-6.092-2.279a12.733,12.733,0,0,1-3.912-.842A12.759,12.759,0,0,1,20.162,5.8c-1.222-2.631-2.379-5.113-4-5.117l-.03,0c-1.6.027-2.773,2.479-4.016,5.082a12.984,12.984,0,0,1-2.007,3.465,12.941,12.941,0,0,1-3.925.8c-2.876.35-5.6.678-6.107,2.215s1.479,3.426,3.585,5.422a12.924,12.924,0,0,1,2.671,2.982,12.836,12.836,0,0,1-.448,3.977c-.558,2.844-1.085,5.537.219,6.5a1.892,1.892,0,0,0,1.167.326c1.331-.021,3.246-1.057,5.1-2.061a12.787,12.787,0,0,1,3.66-1.621,12.673,12.673,0,0,1,3.647,1.654c1.893,1.051,3.852,2.139,5.185,2.117a1.816,1.816,0,0,0,1.061-.322c1.312-.945.812-3.637.285-6.492a13.077,13.077,0,0,1-.41-3.984,13.031,13.031,0,0,1,2.7-2.955C30.627,15.809,32.633,13.948,32.143,12.4Z"/></g><g transform="translate(44)"><g transform="translate(2086 2030.322)"><path class="a" d="M32.143,12.4c-.494-1.545-3.213-1.9-6.092-2.279a12.733,12.733,0,0,1-3.912-.842A12.759,12.759,0,0,1,20.162,5.8c-1.222-2.631-2.379-5.113-4-5.117l-.03,0c-1.6.027-2.773,2.479-4.016,5.082a12.984,12.984,0,0,1-2.007,3.465,12.941,12.941,0,0,1-3.925.8c-2.876.35-5.6.678-6.107,2.215s1.479,3.426,3.585,5.422a12.924,12.924,0,0,1,2.671,2.982,12.836,12.836,0,0,1-.448,3.977c-.558,2.844-1.085,5.537.219,6.5a1.892,1.892,0,0,0,1.167.326c1.331-.021,3.246-1.057,5.1-2.061a12.787,12.787,0,0,1,3.66-1.621,12.673,12.673,0,0,1,3.647,1.654c1.893,1.051,3.852,2.139,5.185,2.117a1.816,1.816,0,0,0,1.061-.322c1.312-.945.812-3.637.285-6.492a13.077,13.077,0,0,1-.41-3.984,13.031,13.031,0,0,1,2.7-2.955C30.627,15.809,32.633,13.948,32.143,12.4Z"/></g></g><g transform="translate(87)"><g transform="translate(2086 2030.322)"><path class="a" d="M32.143,12.4c-.494-1.545-3.213-1.9-6.092-2.279a12.733,12.733,0,0,1-3.912-.842A12.759,12.759,0,0,1,20.162,5.8c-1.222-2.631-2.379-5.113-4-5.117l-.03,0c-1.6.027-2.773,2.479-4.016,5.082a12.984,12.984,0,0,1-2.007,3.465,12.941,12.941,0,0,1-3.925.8c-2.876.35-5.6.678-6.107,2.215s1.479,3.426,3.585,5.422a12.924,12.924,0,0,1,2.671,2.982,12.836,12.836,0,0,1-.448,3.977c-.558,2.844-1.085,5.537.219,6.5a1.892,1.892,0,0,0,1.167.326c1.331-.021,3.246-1.057,5.1-2.061a12.787,12.787,0,0,1,3.66-1.621,12.673,12.673,0,0,1,3.647,1.654c1.893,1.051,3.852,2.139,5.185,2.117a1.816,1.816,0,0,0,1.061-.322c1.312-.945.812-3.637.285-6.492a13.077,13.077,0,0,1-.41-3.984,13.031,13.031,0,0,1,2.7-2.955C30.627,15.809,32.633,13.948,32.143,12.4Z"/></g></g><g transform="translate(131)"><g transform="translate(2086 2030.322)"><path class="a" d="M32.143,12.4c-.494-1.545-3.213-1.9-6.092-2.279a12.733,12.733,0,0,1-3.912-.842A12.759,12.759,0,0,1,20.162,5.8c-1.222-2.631-2.379-5.113-4-5.117l-.03,0c-1.6.027-2.773,2.479-4.016,5.082a12.984,12.984,0,0,1-2.007,3.465,12.941,12.941,0,0,1-3.925.8c-2.876.35-5.6.678-6.107,2.215s1.479,3.426,3.585,5.422a12.924,12.924,0,0,1,2.671,2.982,12.836,12.836,0,0,1-.448,3.977c-.558,2.844-1.085,5.537.219,6.5a1.892,1.892,0,0,0,1.167.326c1.331-.021,3.246-1.057,5.1-2.061a12.787,12.787,0,0,1,3.66-1.621,12.673,12.673,0,0,1,3.647,1.654c1.893,1.051,3.852,2.139,5.185,2.117a1.816,1.816,0,0,0,1.061-.322c1.312-.945.812-3.637.285-6.492a13.077,13.077,0,0,1-.41-3.984,13.031,13.031,0,0,1,2.7-2.955C30.627,15.809,32.633,13.948,32.143,12.4Z"/></g></g><g transform="translate(174)"><g transform="translate(2086 2030.322)"><path class="a" d="M32.143,12.4c-.494-1.545-3.213-1.9-6.092-2.279a12.733,12.733,0,0,1-3.912-.842A12.759,12.759,0,0,1,20.162,5.8c-1.222-2.631-2.379-5.113-4-5.117l-.03,0c-1.6.027-2.773,2.479-4.016,5.082a12.984,12.984,0,0,1-2.007,3.465,12.941,12.941,0,0,1-3.925.8c-2.876.35-5.6.678-6.107,2.215s1.479,3.426,3.585,5.422a12.924,12.924,0,0,1,2.671,2.982,12.836,12.836,0,0,1-.448,3.977c-.558,2.844-1.085,5.537.219,6.5a1.892,1.892,0,0,0,1.167.326c1.331-.021,3.246-1.057,5.1-2.061a12.787,12.787,0,0,1,3.66-1.621,12.673,12.673,0,0,1,3.647,1.654c1.893,1.051,3.852,2.139,5.185,2.117a1.816,1.816,0,0,0,1.061-.322c1.312-.945.812-3.637.285-6.492a13.077,13.077,0,0,1-.41-3.984,13.031,13.031,0,0,1,2.7-2.955C30.627,15.809,32.633,13.948,32.143,12.4Z"/></g></g></g></svg>