<svg xmlns="http://www.w3.org/2000/svg" width="19.997" height="20" viewBox="0 0 19.997 20"><defs><style>.a{fill:#757575;}</style></defs><g transform="translate(-0.039 0)"><g transform="translate(0.039 6.429)"><g transform="translate(0)"><path class="a" d="M12.24,165.98a4.537,4.537,0,0,0-.783-.63,4.666,4.666,0,0,0-5.816.63L1.4,170.223a4.666,4.666,0,0,0,6.6,6.6l3.5-3.5a.333.333,0,0,0-.237-.57h-.133a5.609,5.609,0,0,1-2.133-.413.333.333,0,0,0-.363.073l-2.516,2.52a2,2,0,0,1-2.829-2.829l4.256-4.253a2,2,0,0,1,2.826,0,1.366,1.366,0,0,0,1.873,0,1.32,1.32,0,0,0,0-1.873Z" transform="translate(-0.039 -164.614)"/></g></g><g transform="translate(7.439 0)"><path class="a" d="M200.732,1.367a4.666,4.666,0,0,0-6.6,0l-3.5,3.493a.335.335,0,0,0,.243.57H191a5.6,5.6,0,0,1,2.13.417.333.333,0,0,0,.363-.073l2.51-2.506A2,2,0,0,1,198.836,6.1L195.71,9.219l-.027.03-1.093,1.086a2,2,0,0,1-2.826,0,1.366,1.366,0,0,0-1.873,0,1.329,1.329,0,0,0,0,1.88,4.626,4.626,0,0,0,1.333.933c.07.033.14.06.21.09s.143.053.213.08.143.05.213.07l.2.053c.133.033.267.06.4.083a4.639,4.639,0,0,0,.5.047h.253l.2-.023c.073,0,.15-.02.237-.02h.113l.23-.033.107-.02.193-.04h.037a4.666,4.666,0,0,0,2.163-1.226l4.243-4.243A4.666,4.666,0,0,0,200.732,1.367Z" transform="translate(-189.502 0)"/></g></g></svg>